<svg width="47" height="32" viewBox="0 0 47 32" fill="none" xmlns="http://www.w3.org/2000/svg">
<path d="M45.9625 4.51791C45.9625 2.53164 44.3174 0.921448 42.2881 0.921448H19.0828C15.2287 0.921448 11.7275 2.99013 9.19091 6.32155C8.76245 6.88438 8.36187 7.48328 7.99129 8.11437H42.288C44.3174 8.11437 45.9625 6.50418 45.9625 4.51791Z" fill="#DEB925"/>
<path d="M33.4996 16.1911C33.4996 14.2045 31.852 12.5949 29.8199 12.5949H3.67965C1.64758 12.5949 0 14.2045 0 16.1911C0 18.177 1.64758 19.7872 3.67965 19.7872H29.8199C31.852 19.7872 33.4996 18.177 33.4996 16.1911Z" fill="#DEB925"/>
<path d="M42.3322 31.2536C44.3618 31.2536 46.0071 29.6432 46.0071 27.6567C46.0071 25.6702 44.3618 24.0598 42.3322 24.0598H7.8801C8.25219 24.691 8.65442 25.29 9.08464 25.8529C11.6316 29.1847 15.1472 31.2536 19.0172 31.2536H42.3322Z" fill="#DEB925"/>
</svg>
