<svg width="228" height="38" viewBox="0 0 228 38" fill="none" xmlns="http://www.w3.org/2000/svg">
<path d="M73.2629 32.5632C71.6988 33.8363 70.0859 34.7667 68.4241 35.3543C66.7948 35.9419 64.9701 36.2357 62.9499 36.2357C61.0274 36.2357 59.2189 35.8929 57.5245 35.2074C55.8627 34.5219 54.4127 33.5915 53.1745 32.4163C51.9689 31.2411 51.0076 29.8537 50.2908 28.2541C49.6065 26.6218 49.2643 24.8753 49.2643 23.0146C49.2643 21.1865 49.5902 19.4726 50.2419 17.873C50.9262 16.2408 51.8548 14.8371 53.0279 13.6618C54.2009 12.454 55.5857 11.5073 57.1824 10.8217C58.8116 10.1362 60.5386 9.79343 62.3633 9.79343C64.1555 9.79343 65.8173 10.1525 67.3488 10.8707C68.9128 11.5563 70.2488 12.503 71.3567 13.7108C72.4971 14.9187 73.3769 16.3714 73.996 18.0689C74.6477 19.7338 74.9736 21.5456 74.9736 23.5042V25.2671H56.0093C56.4655 26.8667 57.3453 28.1561 58.6487 29.1355C59.9521 30.1148 61.4835 30.6045 63.2431 30.6045C64.351 30.6045 65.3937 30.4249 66.3712 30.0658C67.3488 29.7068 68.1797 29.2008 68.864 28.5479L73.2629 32.5632ZM62.2167 15.3267C60.6852 15.3267 59.3656 15.8001 58.2577 16.7468C57.1498 17.6608 56.3841 18.9013 55.9605 20.4683H68.4241C68.0005 18.9666 67.2184 17.7424 66.078 16.7957C64.9701 15.8164 63.683 15.3267 62.2167 15.3267Z" fill="white"/>
<path d="M79.0761 35.746V10.2341H85.7723V12.2418C86.7498 11.4257 87.8251 10.8054 88.9981 10.381C90.2038 9.95666 91.5072 9.74447 92.9083 9.74447C95.8409 9.74447 98.2522 10.6912 100.142 12.5846C102.032 14.478 102.977 16.91 102.977 19.8807V35.746H96.2808V20.86C96.2808 19.2604 95.792 17.971 94.8145 16.9916C93.8695 16.0123 92.5987 15.5226 91.0021 15.5226C89.8942 15.5226 88.8841 15.7511 87.9717 16.2081C87.0919 16.6325 86.3588 17.2528 85.7723 18.0689V35.746H79.0761Z" fill="white"/>
<path d="M114.926 35.746L103.978 10.2341H111.26L118.25 27.2257L125.19 10.2341H132.326L121.378 35.746H114.926Z" fill="white"/>
<path d="M132.842 23.0146C132.842 21.1538 133.184 19.4236 133.868 17.824C134.585 16.1918 135.546 14.7881 136.752 13.6129C137.99 12.405 139.44 11.4583 141.102 10.7728C142.764 10.0872 144.54 9.74447 146.43 9.74447C148.319 9.74447 150.095 10.0872 151.757 10.7728C153.419 11.4583 154.853 12.405 156.058 13.6129C157.297 14.7881 158.258 16.1918 158.942 17.824C159.659 19.4236 160.017 21.1538 160.017 23.0146C160.017 24.8753 159.659 26.6218 158.942 28.2541C158.258 29.8537 157.297 31.2411 156.058 32.4163C154.853 33.5915 153.419 34.5219 151.757 35.2074C150.095 35.8929 148.319 36.2357 146.43 36.2357C144.54 36.2357 142.764 35.8929 141.102 35.2074C139.44 34.5219 137.99 33.5915 136.752 32.4163C135.546 31.2411 134.585 29.8537 133.868 28.2541C133.184 26.6218 132.842 24.8753 132.842 23.0146ZM146.43 30.4086C148.385 30.4086 150.046 29.6904 151.415 28.2541C152.784 26.8177 153.468 25.0712 153.468 23.0146C153.468 20.9253 152.784 19.1625 151.415 17.7261C150.046 16.2897 148.385 15.5716 146.43 15.5716C144.474 15.5716 142.813 16.2897 141.444 17.7261C140.076 19.1625 139.391 20.9253 139.391 23.0146C139.391 25.0712 140.076 26.8177 141.444 28.2541C142.813 29.6904 144.474 30.4086 146.43 30.4086Z" fill="white"/>
<path d="M170.829 0V35.746H164.133V1.46901L170.829 0Z" fill="white"/>
<path d="M184.375 35.746L173.427 10.2341H180.709L187.699 27.2257L194.639 10.2341H201.775L190.827 35.746H184.375Z" fill="white"/>
<path d="M226.289 32.5632C224.725 33.8363 223.112 34.7667 221.451 35.3543C219.821 35.9419 217.997 36.2357 215.976 36.2357C214.054 36.2357 212.245 35.8929 210.551 35.2074C208.889 34.5219 207.439 33.5915 206.201 32.4163C204.995 31.2411 204.034 29.8537 203.317 28.2541C202.633 26.6218 202.291 24.8753 202.291 23.0146C202.291 21.1865 202.617 19.4726 203.268 17.873C203.953 16.2408 204.881 14.8371 206.054 13.6618C207.227 12.454 208.612 11.5073 210.209 10.8217C211.838 10.1362 213.565 9.79343 215.39 9.79343C217.182 9.79343 218.844 10.1525 220.375 10.8707C221.939 11.5563 223.275 12.503 224.383 13.7108C225.524 14.9187 226.403 16.3714 227.022 18.0689C227.674 19.7338 228 21.5456 228 23.5042V25.2671H209.036C209.492 26.8667 210.372 28.1561 211.675 29.1355C212.979 30.1148 214.51 30.6045 216.27 30.6045C217.377 30.6045 218.42 30.4249 219.398 30.0658C220.375 29.7068 221.206 29.2008 221.89 28.5479L226.289 32.5632ZM215.243 15.3267C213.712 15.3267 212.392 15.8001 211.284 16.7468C210.176 17.6608 209.411 18.9013 208.987 20.4683H221.451C221.027 18.9666 220.245 17.7424 219.104 16.7957C217.997 15.8164 216.709 15.3267 215.243 15.3267Z" fill="white"/>
<path d="M45.9625 10.5179C45.9625 8.53164 44.3174 6.92145 42.2881 6.92145H19.0828C15.2287 6.92145 11.7275 8.99013 9.19091 12.3216C8.76245 12.8844 8.36187 13.4833 7.99129 14.1144H42.288C44.3174 14.1144 45.9625 12.5042 45.9625 10.5179Z" fill="#DEB925"/>
<path d="M33.4996 22.1911C33.4996 20.2045 31.852 18.5949 29.8199 18.5949H3.67965C1.64758 18.5949 0 20.2045 0 22.1911C0 24.177 1.64758 25.7872 3.67965 25.7872H29.8199C31.852 25.7872 33.4996 24.177 33.4996 22.1911Z" fill="#DEB925"/>
<path d="M42.3322 37.2536C44.3618 37.2536 46.0071 35.6432 46.0071 33.6567C46.0071 31.6702 44.3618 30.0598 42.3322 30.0598H7.8801C8.25219 30.691 8.65442 31.29 9.08464 31.8529C11.6316 35.1847 15.1472 37.2536 19.0172 37.2536H42.3322Z" fill="#DEB925"/>
</svg>
