<svg width="12" height="15" viewBox="0 0 12 15" fill="none" xmlns="http://www.w3.org/2000/svg">
<path d="M0.0140629 2.14286H3.5V0.535714C3.5 0.393634 3.55268 0.257373 3.64645 0.156907C3.74021 0.0564411 3.86739 0 4 0H8C8.13261 0 8.25979 0.0564411 8.35355 0.156907C8.44732 0.257373 8.5 0.393634 8.5 0.535714V2.14286H11.9859L12 3.48214H10.9688L10.3409 13.9955C10.325 14.2674 10.2131 14.5226 10.0279 14.7092C9.84262 14.8958 9.598 14.9998 9.34375 15H2.65625C2.40215 15 2.15759 14.8963 1.97225 14.71C1.78692 14.5238 1.67472 14.2689 1.65844 13.9972L1.03125 3.48214H0L0.0140629 2.14286ZM8.5 12.8571L8.78125 4.28571H7.75L7.46875 12.8571H8.5ZM5.5 12.8571H6.5V4.28571H5.5V12.8571ZM4.75 2.14286H7.25V1.20536C7.25 1.16984 7.23683 1.13577 7.21339 1.11066C7.18995 1.08554 7.15815 1.07143 7.125 1.07143H4.875C4.84185 1.07143 4.81005 1.08554 4.78661 1.11066C4.76317 1.13577 4.75 1.16984 4.75 1.20536V2.14286ZM3.5 12.8571H4.53125L4.25 4.28571H3.21875L3.5 12.8571Z" fill="#F2F2F2"/>
</svg>
